<?xml version="1.0" encoding="UTF-8"?>
<svg width="512" height="512" viewBox="0 0 512 512" xmlns="http://www.w3.org/2000/svg">
  <defs>
    <linearGradient id="g" x1="0" y1="0" x2="1" y2="1">
      <stop offset="0%" stop-color="#2563eb"/>
      <stop offset="100%" stop-color="#1e3a8a"/>
    </linearGradient>
    <linearGradient id="g2" x1="0" y1="0" x2="0" y2="1">
      <stop offset="0%" stop-color="#0ea5e9"/>
      <stop offset="100%" stop-color="#0284c7"/>
    </linearGradient>
  </defs>
  <rect x="32" y="64" width="448" height="384" rx="32" fill="url(#g)"/>
  <rect x="64" y="112" width="384" height="96" rx="16" fill="#0f172a" opacity="0.15"/>
  <rect x="80" y="128" width="224" height="64" rx="12" fill="#ffffff" opacity="0.85"/>
  <rect x="320" y="128" width="112" height="32" rx="8" fill="#22c55e" opacity="0.9"/>
  <g transform="translate(96,232)">
    <rect x="0" y="0" width="128" height="96" rx="12" fill="#0f172a" opacity="0.15"/>
    <rect x="16" y="16" width="96" height="16" rx="8" fill="#e2e8f0"/>
    <rect x="16" y="44" width="96" height="16" rx="8" fill="#e2e8f0"/>
    <rect x="16" y="72" width="64" height="16" rx="8" fill="#e2e8f0"/>
  </g>
  <g transform="translate(248,232)">
    <rect x="0" y="0" width="200" height="96" rx="12" fill="#0f172a" opacity="0.15"/>
    <rect x="16" y="16" width="168" height="20" rx="10" fill="#e2e8f0"/>
    <rect x="16" y="48" width="136" height="12" rx="6" fill="#e2e8f0" opacity="0.8"/>
    <rect x="16" y="68" width="152" height="12" rx="6" fill="#e2e8f0" opacity="0.8"/>
  </g>
  <g transform="translate(80,360)">
    <rect x="0" y="0" width="352" height="40" rx="10" fill="url(#g2)"/>
    <rect x="12" y="10" width="60" height="20" rx="6" fill="#ffffff" opacity="0.9"/>
    <rect x="84" y="10" width="60" height="20" rx="6" fill="#ffffff" opacity="0.9"/>
    <rect x="156" y="10" width="60" height="20" rx="6" fill="#ffffff" opacity="0.9"/>
    <rect x="228" y="10" width="60" height="20" rx="6" fill="#ffffff" opacity="0.9"/>
    <rect x="300" y="10" width="40" height="20" rx="6" fill="#22c55e"/>
  </g>
  <circle cx="432" cy="368" r="20" fill="#22c55e"/>
  <path d="M432 360 l0 16 M424 368 l16 0" stroke="#ffffff" stroke-width="4" stroke-linecap="round"/>
</svg>
